<svg width="51" height="51" viewBox="0 0 51 51" fill="none" xmlns="http://www.w3.org/2000/svg">
<mask id="mask0_442_85" style="mask-type:alpha" maskUnits="userSpaceOnUse" x="0" y="0" width="51" height="51">
<rect x="0.432617" y="0.469727" width="50" height="50" fill="#D9D9D9"/>
</mask>
<g mask="url(#mask0_442_85)">
<path d="M17.9325 35.8862L25.4325 28.3862L32.9325 35.8862L35.8491 32.9696L28.3491 25.4696L35.8491 17.9696L32.9325 15.0529L25.4325 22.5529L17.9325 15.0529L15.0158 17.9696L22.5158 25.4696L15.0158 32.9696L17.9325 35.8862ZM25.4325 46.3029C22.5505 46.3029 19.8422 45.756 17.3075 44.6623C14.7727 43.5685 12.5679 42.0842 10.6929 40.2092C8.81787 38.3342 7.3335 36.1293 6.23975 33.5946C5.146 31.0598 4.59912 28.3515 4.59912 25.4696C4.59912 22.5876 5.146 19.8793 6.23975 17.3446C7.3335 14.8098 8.81787 12.605 10.6929 10.73C12.5679 8.85498 14.7727 7.37061 17.3075 6.27686C19.8422 5.18311 22.5505 4.63623 25.4325 4.63623C28.3144 4.63623 31.0227 5.18311 33.5575 6.27686C36.0922 7.37061 38.297 8.85498 40.172 10.73C42.047 12.605 43.5314 14.8098 44.6252 17.3446C45.7189 19.8793 46.2658 22.5876 46.2658 25.4696C46.2658 28.3515 45.7189 31.0598 44.6252 33.5946C43.5314 36.1293 42.047 38.3342 40.172 40.2092C38.297 42.0842 36.0922 43.5685 33.5575 44.6623C31.0227 45.756 28.3144 46.3029 25.4325 46.3029ZM25.4325 42.1362C30.0852 42.1362 34.0262 40.5217 37.2554 37.2925C40.4845 34.0633 42.0991 30.1223 42.0991 25.4696C42.0991 20.8168 40.4845 16.8758 37.2554 13.6466C34.0262 10.4175 30.0852 8.8029 25.4325 8.8029C20.7797 8.8029 16.8387 10.4175 13.6095 13.6466C10.3804 16.8758 8.76579 20.8168 8.76579 25.4696C8.76579 30.1223 10.3804 34.0633 13.6095 37.2925C16.8387 40.5217 20.7797 42.1362 25.4325 42.1362Z" fill="#1C1B1F"/>
</g>
</svg>
