<svg width="50" height="50" viewBox="0 0 50 50" fill="none" xmlns="http://www.w3.org/2000/svg">
<mask id="mask0_406_82" style="mask-type:alpha" maskUnits="userSpaceOnUse" x="0" y="0" width="50" height="50">
<rect width="50" height="50" fill="#D9D9D9"/>
</mask>
<g mask="url(#mask0_406_82)">
<path d="M14.5832 43.75C13.4374 43.75 12.4565 43.342 11.6405 42.526C10.8246 41.7101 10.4166 40.7292 10.4166 39.5833V12.5H8.33325V8.33333H18.7499V6.25H31.2499V8.33333H41.6666V12.5H39.5832V39.5833C39.5832 40.7292 39.1753 41.7101 38.3593 42.526C37.5433 43.342 36.5624 43.75 35.4166 43.75H14.5832ZM35.4166 12.5H14.5832V39.5833H35.4166V12.5ZM18.7499 35.4167H22.9166V16.6667H18.7499V35.4167ZM27.0832 35.4167H31.2499V16.6667H27.0832V35.4167Z" fill="#1C1B1F"/>
</g>
</svg>
