<svg width="51" height="51" viewBox="0 0 51 51" fill="none" xmlns="http://www.w3.org/2000/svg">
<mask id="mask0_441_75" style="mask-type:alpha" maskUnits="userSpaceOnUse" x="0" y="0" width="51" height="51">
<rect x="0.180664" y="0.183594" width="50" height="50" fill="#D9D9D9"/>
</mask>
<g mask="url(#mask0_441_75)">
<path d="M14.7642 46.0168C13.6183 46.0168 12.6374 45.6088 11.8215 44.7928C11.0055 43.9768 10.5975 42.9959 10.5975 41.8501C10.5975 40.7043 11.0055 39.7234 11.8215 38.9074C12.6374 38.0914 13.6183 37.6834 14.7642 37.6834C15.91 37.6834 16.8909 38.0914 17.7069 38.9074C18.5228 39.7234 18.9308 40.7043 18.9308 41.8501C18.9308 42.9959 18.5228 43.9768 17.7069 44.7928C16.8909 45.6088 15.91 46.0168 14.7642 46.0168ZM35.5975 46.0168C34.4517 46.0168 33.4708 45.6088 32.6548 44.7928C31.8388 43.9768 31.4308 42.9959 31.4308 41.8501C31.4308 40.7043 31.8388 39.7234 32.6548 38.9074C33.4708 38.0914 34.4517 37.6834 35.5975 37.6834C36.7433 37.6834 37.7242 38.0914 38.5402 38.9074C39.3562 39.7234 39.7642 40.7043 39.7642 41.8501C39.7642 42.9959 39.3562 43.9768 38.5402 44.7928C37.7242 45.6088 36.7433 46.0168 35.5975 46.0168ZM12.9933 12.6834L17.9933 23.1001H32.5767L38.3058 12.6834H12.9933ZM11.0142 8.51676H41.7433C42.5419 8.51676 43.1496 8.87267 43.5662 9.58447C43.9829 10.2963 44.0003 11.0168 43.6183 11.7459L36.2225 25.0793C35.8406 25.7737 35.3284 26.3119 34.686 26.6939C34.0437 27.0758 33.3405 27.2668 32.5767 27.2668H17.0558L14.7642 31.4334H39.7642V35.6001H14.7642C13.2017 35.6001 12.0211 34.9143 11.2225 33.5428C10.4239 32.1713 10.3892 30.8084 11.1183 29.4543L13.9308 24.3501L6.43083 8.51676H2.26416V4.3501H9.03499L11.0142 8.51676Z" fill="#1C1B1F"/>
</g>
</svg>
