<svg width="50" height="50" viewBox="0 0 50 50" fill="none" xmlns="http://www.w3.org/2000/svg">
<mask id="mask0_441_76" style="mask-type:alpha" maskUnits="userSpaceOnUse" x="0" y="0" width="50" height="50">
<rect width="50" height="50" fill="#D9D9D9"/>
</mask>
<g mask="url(#mask0_441_76)">
<path d="M14.5835 45.8332C13.4377 45.8332 12.4568 45.4252 11.6408 44.6092C10.8248 43.7932 10.4168 42.8123 10.4168 41.6665C10.4168 40.5207 10.8248 39.5398 11.6408 38.7238C12.4568 37.9078 13.4377 37.4998 14.5835 37.4998C15.7293 37.4998 16.7102 37.9078 17.5262 38.7238C18.3422 39.5398 18.7502 40.5207 18.7502 41.6665C18.7502 42.8123 18.3422 43.7932 17.5262 44.6092C16.7102 45.4252 15.7293 45.8332 14.5835 45.8332ZM35.4168 45.8332C34.271 45.8332 33.2901 45.4252 32.4741 44.6092C31.6581 43.7932 31.2502 42.8123 31.2502 41.6665C31.2502 40.5207 31.6581 39.5398 32.4741 38.7238C33.2901 37.9078 34.271 37.4998 35.4168 37.4998C36.5627 37.4998 37.5436 37.9078 38.3595 38.7238C39.1755 39.5398 39.5835 40.5207 39.5835 41.6665C39.5835 42.8123 39.1755 43.7932 38.3595 44.6092C37.5436 45.4252 36.5627 45.8332 35.4168 45.8332ZM12.8127 12.4998L17.8127 22.9165H32.396L38.1252 12.4998H12.8127ZM10.8335 8.33317H41.5627C42.3613 8.33317 42.9689 8.68907 43.3856 9.40088C43.8022 10.1127 43.8196 10.8332 43.4377 11.5623L36.0418 24.8957C35.6599 25.5901 35.1477 26.1283 34.5054 26.5103C33.863 26.8922 33.1599 27.0832 32.396 27.0832H16.8752L14.5835 31.2498H39.5835V35.4165H14.5835C13.021 35.4165 11.8404 34.7307 11.0418 33.3592C10.2432 31.9877 10.2085 30.6248 10.9377 29.2707L13.7502 24.1665L6.25016 8.33317H2.0835V4.1665H8.85433L10.8335 8.33317Z" fill="white"/>
</g>
</svg>
